<svg width="148" height="56" viewBox="0 0 148 56" fill="none" xmlns="http://www.w3.org/2000/svg">
<path d="M35.9491 13.4366H40.7942V15.8077H33V0.897196H35.9491V13.4366Z" fill="black"/>
<path d="M53.5173 9.63418C53.5173 10.0614 53.4892 10.4459 53.433 10.7877H44.9016C44.9718 11.6422 45.2667 12.3115 45.7863 12.7957C46.3059 13.2799 46.9449 13.522 47.7032 13.522C48.7986 13.522 49.5781 13.0449 50.0415 12.0908H53.2223C52.8853 13.2301 52.2393 14.17 51.2843 14.9105C50.3294 15.6368 49.1567 16 47.7664 16C46.643 16 45.6318 15.7508 44.733 15.2523C43.8483 14.7397 43.1531 14.0205 42.6476 13.0948C42.156 12.1691 41.9103 11.101 41.9103 9.89052C41.9103 8.66578 42.156 7.59057 42.6476 6.66489C43.1391 5.73921 43.8272 5.02715 44.712 4.52871C45.5967 4.03026 46.6149 3.78104 47.7664 3.78104C48.8759 3.78104 49.8659 4.02314 50.7366 4.50734C51.6214 4.99154 52.3025 5.68224 52.78 6.57944C53.2715 7.46239 53.5173 8.48064 53.5173 9.63418ZM50.4628 8.77971C50.4487 8.01068 50.1749 7.39831 49.6412 6.94259C49.1076 6.47263 48.4546 6.23765 47.6822 6.23765C46.9519 6.23765 46.334 6.46551 45.8284 6.92123C45.3369 7.36271 45.035 7.9822 44.9226 8.77971H50.4628Z" fill="black"/>
<path d="M54.9115 9.8478C54.9115 8.65154 55.1432 7.59057 55.6067 6.66489C56.0842 5.73921 56.7231 5.02715 57.5236 4.52871C58.3381 4.03026 59.2439 3.78104 60.241 3.78104C61.1117 3.78104 61.8701 3.95906 62.5161 4.31509C63.1761 4.67112 63.7028 5.11971 64.096 5.66088V3.9733H67.0662V15.8077H64.096V14.0774C63.7168 14.6328 63.1902 15.0957 62.5161 15.466C61.856 15.822 61.0907 16 60.22 16C59.2369 16 58.3381 15.7437 57.5236 15.231C56.7231 14.7183 56.0842 13.9991 55.6067 13.0734C55.1432 12.1335 54.9115 11.0583 54.9115 9.8478ZM64.096 9.89052C64.096 9.16422 63.9555 8.54473 63.6747 8.03204C63.3938 7.50512 63.0146 7.10636 62.5372 6.83578C62.0597 6.55096 61.5471 6.40854 60.9994 6.40854C60.4517 6.40854 59.9461 6.54384 59.4827 6.81442C59.0192 7.085 58.6401 7.48376 58.3452 8.01068C58.0643 8.52336 57.9239 9.13574 57.9239 9.8478C57.9239 10.5599 58.0643 11.1865 58.3452 11.7276C58.6401 12.2546 59.0192 12.6604 59.4827 12.9453C59.9602 13.2301 60.4657 13.3725 60.9994 13.3725C61.5471 13.3725 62.0597 13.2372 62.5372 12.9666C63.0146 12.6818 63.3938 12.283 63.6747 11.7704C63.9555 11.2434 64.096 10.6168 64.096 9.89052Z" fill="black"/>
<path d="M72.8957 5.81041C73.2748 5.1838 73.7664 4.69248 74.3702 4.33645C74.9882 3.98042 75.6903 3.8024 76.4768 3.8024V6.94259H75.6974C74.7705 6.94259 74.0683 7.16333 73.5908 7.60481C73.1274 8.04628 72.8957 8.81531 72.8957 9.91188V15.8077H69.9465V3.9733H72.8957V5.81041Z" fill="black"/>
<path d="M84.9302 3.8024C86.3205 3.8024 87.444 4.251 88.3007 5.1482C89.1573 6.03115 89.5856 7.27014 89.5856 8.86515V15.8077H86.6365V9.27103C86.6365 8.33111 86.4048 7.61193 85.9413 7.11348C85.4779 6.6008 84.8459 6.34446 84.0455 6.34446C83.2309 6.34446 82.5849 6.6008 82.1075 7.11348C81.644 7.61193 81.4123 8.33111 81.4123 9.27103V15.8077H78.4632V3.9733H81.4123V5.44726C81.8055 4.93458 82.3041 4.53583 82.9079 4.251C83.5259 3.95194 84.1999 3.8024 84.9302 3.8024Z" fill="black"/>
<path d="M106.883 3.8024C108.315 3.8024 109.467 4.251 110.338 5.1482C111.222 6.03115 111.665 7.27014 111.665 8.86515V15.8077H108.716V9.27103C108.716 8.34535 108.484 7.64041 108.021 7.15621C107.557 6.65777 106.925 6.40854 106.125 6.40854C105.324 6.40854 104.685 6.65777 104.208 7.15621C103.744 7.64041 103.513 8.34535 103.513 9.27103V15.8077H100.563V9.27103C100.563 8.34535 100.332 7.64041 99.8683 7.15621C99.4049 6.65777 98.7729 6.40854 97.9724 6.40854C97.1579 6.40854 96.5119 6.65777 96.0344 7.15621C95.571 7.64041 95.3393 8.34535 95.3393 9.27103V15.8077H92.3901V3.9733H95.3393V5.40454C95.7184 4.9061 96.2029 4.51446 96.7928 4.22964C97.3966 3.94481 98.0567 3.8024 98.7729 3.8024C99.6857 3.8024 100.5 4.00178 101.216 4.40053C101.933 4.78505 102.487 5.34045 102.881 6.06676C103.26 5.38318 103.808 4.83489 104.524 4.4219C105.254 4.0089 106.04 3.8024 106.883 3.8024Z" fill="black"/>
<path d="M113.705 9.8478C113.705 8.65154 113.937 7.59057 114.4 6.66489C114.878 5.73921 115.517 5.02715 116.317 4.52871C117.132 4.03026 118.037 3.78104 119.035 3.78104C119.905 3.78104 120.664 3.95906 121.31 4.31509C121.97 4.67112 122.496 5.11971 122.89 5.66088V3.9733H125.86V15.8077H122.89V14.0774C122.51 14.6328 121.984 15.0957 121.31 15.466C120.65 15.822 119.884 16 119.014 16C118.03 16 117.132 15.7437 116.317 15.231C115.517 14.7183 114.878 13.9991 114.4 13.0734C113.937 12.1335 113.705 11.0583 113.705 9.8478ZM122.89 9.89052C122.89 9.16422 122.749 8.54473 122.468 8.03204C122.187 7.50512 121.808 7.10636 121.331 6.83578C120.853 6.55096 120.341 6.40854 119.793 6.40854C119.245 6.40854 118.74 6.54384 118.276 6.81442C117.813 7.085 117.434 7.48376 117.139 8.01068C116.858 8.52336 116.717 9.13574 116.717 9.8478C116.717 10.5599 116.858 11.1865 117.139 11.7276C117.434 12.2546 117.813 12.6604 118.276 12.9453C118.754 13.2301 119.259 13.3725 119.793 13.3725C120.341 13.3725 120.853 13.2372 121.331 12.9666C121.808 12.6818 122.187 12.283 122.468 11.7704C122.749 11.2434 122.89 10.6168 122.89 9.89052Z" fill="black"/>
<path d="M131.689 5.81041C132.068 5.1838 132.56 4.69248 133.164 4.33645C133.782 3.98042 134.484 3.8024 135.27 3.8024V6.94259H134.491C133.564 6.94259 132.862 7.16333 132.384 7.60481C131.921 8.04628 131.689 8.81531 131.689 9.91188V15.8077H128.74V3.9733H131.689V5.81041Z" fill="black"/>
<path d="M144.166 15.8077L140.206 10.7664V15.8077H137.257V0H140.206V8.99332L144.124 3.9733H147.958L142.818 9.91188L148 15.8077H144.166Z" fill="black"/>
<path d="M111.06 22V29.8977H109.815V26.4432H106.245V29.8977H105V22H106.245V25.3864H109.815V22H111.06Z" fill="black"/>
<path d="M115.308 30C114.74 30 114.227 29.8674 113.768 29.6023C113.31 29.3295 112.949 28.9508 112.687 28.4659C112.425 27.9735 112.294 27.4053 112.294 26.7614C112.294 26.125 112.429 25.5606 112.698 25.0682C112.968 24.5758 113.335 24.197 113.801 23.9318C114.267 23.6667 114.787 23.5341 115.362 23.5341C115.937 23.5341 116.458 23.6667 116.924 23.9318C117.389 24.197 117.757 24.5758 118.026 25.0682C118.296 25.5606 118.43 26.125 118.43 26.7614C118.43 27.3977 118.292 27.9621 118.015 28.4545C117.739 28.947 117.36 29.3295 116.88 29.6023C116.407 29.8674 115.883 30 115.308 30ZM115.308 28.875C115.628 28.875 115.926 28.7955 116.203 28.6364C116.487 28.4773 116.716 28.2386 116.891 27.9205C117.066 27.6023 117.153 27.2159 117.153 26.7614C117.153 26.3068 117.069 25.9242 116.902 25.6136C116.734 25.2955 116.512 25.0568 116.236 24.8977C115.959 24.7386 115.661 24.6591 115.34 24.6591C115.02 24.6591 114.722 24.7386 114.445 24.8977C114.176 25.0568 113.961 25.2955 113.801 25.6136C113.641 25.9242 113.561 26.3068 113.561 26.7614C113.561 27.4356 113.725 27.9583 114.052 28.3295C114.387 28.6932 114.805 28.875 115.308 28.875Z" fill="black"/>
<path d="M120.905 24.5455C121.087 24.2273 121.328 23.9811 121.626 23.8068C121.932 23.625 122.292 23.5341 122.707 23.5341V24.875H122.39C121.903 24.875 121.531 25.0038 121.277 25.2614C121.029 25.5189 120.905 25.9659 120.905 26.6023V29.8977H119.661V23.6364H120.905V24.5455Z" fill="black"/>
<path d="M126.035 30C125.562 30 125.136 29.9129 124.757 29.7386C124.386 29.5568 124.091 29.3144 123.873 29.0114C123.655 28.7008 123.538 28.3561 123.524 27.9773H124.812C124.834 28.2424 124.954 28.4659 125.172 28.6477C125.398 28.822 125.678 28.9091 126.013 28.9091C126.362 28.9091 126.632 28.8409 126.821 28.7045C127.017 28.5606 127.116 28.3788 127.116 28.1591C127.116 27.9242 127.007 27.75 126.788 27.6364C126.577 27.5227 126.239 27.3977 125.773 27.2614C125.321 27.1326 124.954 27.0076 124.67 26.8864C124.386 26.7652 124.139 26.5795 123.928 26.3295C123.724 26.0795 123.622 25.75 123.622 25.3409C123.622 25.0076 123.716 24.7045 123.906 24.4318C124.095 24.1515 124.364 23.9318 124.714 23.7727C125.07 23.6136 125.478 23.5341 125.937 23.5341C126.621 23.5341 127.17 23.7159 127.585 24.0795C128.007 24.4356 128.233 24.9242 128.262 25.5455H127.017C126.996 25.2652 126.886 25.0417 126.69 24.875C126.493 24.7083 126.228 24.625 125.893 24.625C125.565 24.625 125.314 24.6894 125.139 24.8182C124.965 24.947 124.877 25.1174 124.877 25.3295C124.877 25.4962 124.936 25.6364 125.052 25.75C125.169 25.8636 125.311 25.9545 125.478 26.0227C125.645 26.0833 125.893 26.1629 126.22 26.2614C126.657 26.3826 127.014 26.5076 127.29 26.6364C127.574 26.7576 127.818 26.9394 128.022 27.1818C128.226 27.4242 128.331 27.7462 128.339 28.1477C128.339 28.5038 128.244 28.822 128.055 29.1023C127.865 29.3826 127.596 29.6023 127.247 29.7614C126.905 29.9205 126.501 30 126.035 30Z" fill="black"/>
<path d="M135.197 26.6136C135.197 26.8485 135.183 27.0606 135.154 27.25H130.557C130.593 27.75 130.772 28.1515 131.092 28.4545C131.412 28.7576 131.805 28.9091 132.271 28.9091C132.941 28.9091 133.414 28.6174 133.69 28.0341H135.033C134.851 28.6098 134.52 29.0833 134.04 29.4545C133.567 29.8182 132.977 30 132.271 30C131.696 30 131.179 29.8674 130.721 29.6023C130.269 29.3295 129.913 28.9508 129.651 28.4659C129.396 27.9735 129.269 27.4053 129.269 26.7614C129.269 26.1174 129.392 25.553 129.64 25.0682C129.895 24.5758 130.248 24.197 130.699 23.9318C131.157 23.6667 131.681 23.5341 132.271 23.5341C132.839 23.5341 133.345 23.6629 133.789 23.9205C134.233 24.178 134.578 24.5417 134.826 25.0114C135.073 25.4735 135.197 26.0076 135.197 26.6136ZM133.898 26.2045C133.891 25.7273 133.727 25.3447 133.407 25.0568C133.086 24.7689 132.69 24.625 132.216 24.625C131.787 24.625 131.419 24.7689 131.114 25.0568C130.808 25.3371 130.626 25.7197 130.568 26.2045H133.898Z" fill="black"/>
<path d="M139.457 23.5341C139.93 23.5341 140.353 23.6364 140.724 23.8409C141.102 24.0455 141.397 24.3485 141.608 24.75C141.819 25.1515 141.925 25.6364 141.925 26.2045V29.8977H140.691V26.3977C140.691 25.8371 140.556 25.4091 140.287 25.1136C140.018 24.8106 139.65 24.6591 139.184 24.6591C138.719 24.6591 138.347 24.8106 138.071 25.1136C137.801 25.4091 137.667 25.8371 137.667 26.3977V29.8977H136.422V23.6364H137.667V24.3523C137.871 24.0947 138.129 23.8939 138.442 23.75C138.762 23.6061 139.101 23.5341 139.457 23.5341Z" fill="black"/>
<path d="M145.696 30C145.223 30 144.797 29.9129 144.419 29.7386C144.048 29.5568 143.753 29.3144 143.534 29.0114C143.316 28.7008 143.2 28.3561 143.185 27.9773H144.473C144.495 28.2424 144.615 28.4659 144.834 28.6477C145.059 28.822 145.34 28.9091 145.674 28.9091C146.024 28.9091 146.293 28.8409 146.482 28.7045C146.679 28.5606 146.777 28.3788 146.777 28.1591C146.777 27.9242 146.668 27.75 146.45 27.6364C146.239 27.5227 145.9 27.3977 145.434 27.2614C144.983 27.1326 144.615 27.0076 144.331 26.8864C144.048 26.7652 143.8 26.5795 143.589 26.3295C143.385 26.0795 143.283 25.75 143.283 25.3409C143.283 25.0076 143.378 24.7045 143.567 24.4318C143.756 24.1515 144.026 23.9318 144.375 23.7727C144.732 23.6136 145.139 23.5341 145.598 23.5341C146.282 23.5341 146.832 23.7159 147.247 24.0795C147.669 24.4356 147.894 24.9242 147.924 25.5455H146.679C146.657 25.2652 146.548 25.0417 146.351 24.875C146.155 24.7083 145.889 24.625 145.554 24.625C145.227 24.625 144.976 24.6894 144.801 24.8182C144.626 24.947 144.539 25.1174 144.539 25.3295C144.539 25.4962 144.597 25.6364 144.714 25.75C144.83 25.8636 144.972 25.9545 145.139 26.0227C145.307 26.0833 145.554 26.1629 145.882 26.2614C146.319 26.3826 146.675 26.5076 146.952 26.6364C147.236 26.7576 147.48 26.9394 147.683 27.1818C147.887 27.4242 147.993 27.7462 148 28.1477C148 28.5038 147.905 28.822 147.716 29.1023C147.527 29.3826 147.258 29.6023 146.908 29.7614C146.566 29.9205 146.162 30 145.696 30Z" fill="black"/>
<path d="M1 1H14V43C14 49.6274 19.3726 55 26 55H43V42H13C6.37258 42 1 36.6274 1 30V1Z" stroke="#F2BF00" stroke-width="2"/>
</svg>
