<svg xmlns="http://www.w3.org/2000/svg" width="413" height="58" viewBox="0 0 413 58" fill="none" aria-hidden="true" focusable="false" class="common-logo__image"><g clip-path="url(#clip0_2542_2963)"><path d="M82.204 0L71.141 2.463V50h11.063V0zm108.501 50H179.65v-4.926L174.115 50h-9.364l-5.535-4.926V10.619h5.535l5.528 4.926v24.61h3.836l5.535-2.463V10.619h11.055V50zm-46.13-12.308l-5.528 2.463h-4.963v-4.92h10.498V37.7l-.007-.007zm11.063-22.147l-5.528-4.919h-20.74l-5.528 4.92v4.918l10.249 2.463v-2.463h10.499v4.92h-16.027l-5.528 4.918v14.765l5.528 4.92h10.499l5.528-4.92v4.92h11.063V15.544h-.015zM56.029 37.692L50.5 40.155h-4.964v-4.92h10.5V37.7l-.008-.007zm11.063-22.147l-5.528-4.919h-20.74l-5.528 4.92v4.918l10.248 2.463v-2.463h10.5v4.92H40.016l-5.528 4.918v14.765l5.528 4.92h10.498l5.528-4.92v4.92h11.063V15.544h-.014zm30.225 19.684V22.927l5.535-2.463h5.528v17.228h-5.528l-5.535-2.463zm5.535-24.61l-5.535 4.92v-4.92H86.254v47.374h11.063V42.61l5.535 4.926h11.063l5.528-4.926V15.545l-5.528-4.919h-11.063v-.007zm-97.324 0L0 15.545V30.31l5.528 4.919 13.827.007v4.919h-8.292v-2.463L0 40.155v4.919L5.528 50H24.89l5.528-4.926V30.31l-5.528-4.92H11.063v-4.926h8.292v2.463l11.063-2.463v-4.919L24.89 10.62H5.528zm219.18 9.845v-4.919l-5.527-4.926h-19.362l-5.528 4.926V30.31l5.528 4.919 13.827.007v4.919h-8.292v-2.463l-11.063 2.463v4.919L199.819 50h19.362l5.527-4.926V30.31l-5.527-4.92h-13.827v-4.926h8.292v2.463l11.062-2.463z" fill="#F45917"></path><path d="M389.674 23.744c0-2.265-1.635-3.017-2.992-3.407-1.514-.462-2.414-.575-2.414-1.803 0-.845.757-1.512 2-1.512.457 0 .899.07 1.264.206l.3 1.348h1.171V15.95c-.943-.298-2-.483-2.9-.483-2.228 0-3.771 1.257-3.771 3.11 0 2.192 1.7 2.767 3.428 3.271 1.172.341 2 .689 2 1.924 0 1.235-1.171 1.832-2.3 1.832-.457 0-1.171-.093-2.021-.341l-.3-1.534h-1.221v2.882c1.264.433 2.393.618 3.614.618 2.392 0 4.142-1.278 4.142-3.478m-8.977 2.953v-1.05l-1.886-.207V15.73h-1.057l-2.599.412v1.121l1.678.114v6.558c-.9 1.143-1.793 1.669-3.15 1.669-.921 0-1.607-.64-1.607-2.215v-7.66h-1.057l-2.806.413v1.121l1.885.114v6.267c0 2.627 1.4 3.635 3.128 3.635 1.614 0 2.921-.66 3.678-1.832h.043l.164 1.626h1.129l2.464-.362-.007-.007zm-12.777.32v-1.165l-1.793-.32-3.335-5.763 2.349-2.584 1.865-.32V15.73h-5.243v1.164l1.336.227-1.586 1.76c-.757.866-1.542 1.81-1.728 2.059h-.093V10.562h-1.057l-2.785.412v1.121l1.864.135v13.31l-1.864.319v1.164h5.613v-1.185l-1.771-.298v-2.513l1.814-2.037h.043c.093.205.664 1.327 1.357 2.562l1.907 3.478h3.107v-.007zm-13.134-3.273c0-2.265-1.636-3.017-2.993-3.407-1.514-.462-2.414-.575-2.414-1.803 0-.845.757-1.512 2-1.512.457 0 .9.07 1.264.206l.3 1.348h1.171v-2.626c-.942-.298-2-.483-2.899-.483-2.229 0-3.771 1.257-3.771 3.11 0 2.193 1.699 2.768 3.428 3.272 1.171.34 2 .688 2 1.923s-1.172 1.832-2.3 1.832c-.457 0-1.171-.093-2.021-.341l-.3-1.533h-1.222v2.882c1.265.433 2.393.617 3.614.617 2.393 0 4.143-1.278 4.143-3.478m-10.713-3.5h-5.821c.186-2.008 1.378-3.293 3.057-3.293 1.885 0 2.735 1.462 2.756 3.272v.022h.008zm1.728 1.328v-.483c0-3.684-1.428-5.622-4.485-5.622-3.057 0-4.971 2.194-4.971 5.807 0 3.613 1.843 5.948 5.406 5.948 1.493 0 2.464-.206 3.521-.504l-.371-1.554c-.986.276-1.843.482-3.2.482-1.999 0-3.471-1.391-3.471-4.067h7.571v-.007zm-9.849 5.444v-1.164l-1.792-.32-3.336-5.763 2.35-2.584 1.864-.32v-1.142h-5.242V16.9l1.335.227-1.585 1.76c-.757.866-1.543 1.81-1.729 2.059h-.092V10.569h-1.057l-2.786.412v1.122l1.864.134v13.31l-1.864.32v1.163h5.614v-1.185l-1.771-.298v-2.513l1.814-2.037h.05c.092.206.664 1.327 1.357 2.562l1.907 3.478h3.106l-.007-.007zm-13.134-3.272c0-2.264-1.635-3.017-2.992-3.407-1.522-.462-2.414-.575-2.414-1.803 0-.845.757-1.512 1.999-1.512.457 0 .9.07 1.264.206l.3 1.348h1.172v-2.626c-.943-.298-2-.483-2.9-.483-2.228 0-3.771 1.257-3.771 3.11 0 2.193 1.7 2.768 3.428 3.272 1.172.34 2 .688 2 1.923s-1.171 1.832-2.3 1.832c-.457 0-1.171-.093-2.021-.341l-.3-1.533h-1.221v2.882c1.264.433 2.392.617 3.614.617 2.392 0 4.142-1.277 4.142-3.478m-8.977 2.953v-1.05l-1.886-.206v-9.718h-1.057l-2.6.412v1.121l1.679.114v6.559c-.9 1.142-1.793 1.668-3.15 1.668-.921 0-1.607-.64-1.607-2.215v-7.659h-1.057l-2.807.412v1.121l1.886.114v6.268c0 2.626 1.4 3.634 3.128 3.634 1.607 0 2.921-.66 3.678-1.831h.05l.164 1.625h1.129l2.464-.362-.014-.007zm-12.935-.114l-.55-1.483c-.692.277-1.285.461-1.956.461-.736 0-1.129-.39-1.129-1.121v-7.177h2.807v-1.533h-2.807V12.87l-1.978.753v2.122h-1.543v1.533h1.543v7.617c0 1.533 1.15 2.356 2.807 2.356.85 0 1.864-.227 2.806-.639m-7.42.114v-1.05l-1.886-.206v-9.72h-1.057l-2.599.412v1.121l1.678.114v6.559c-.9 1.142-1.793 1.668-3.15 1.668-.921 0-1.614-.64-1.614-2.215V15.75h-1.057l-2.806.412v1.121l1.885.114v6.268c0 2.626 1.4 3.634 3.128 3.634 1.614 0 2.921-.66 3.678-1.831h.05l.157 1.625h1.129l2.464-.362v-.007zm-16.327-1.164l-1.864.32v1.163h5.728V25.88l-1.885-.32V10.549h-1.057l-2.786.412v1.121l1.864.135v13.345zm-2.907 1.164v-1.05l-1.885-.206v-9.72h-1.057l-2.6.412v1.121l1.679.114v6.559c-.9 1.142-1.793 1.668-3.15 1.668-.921 0-1.614-.64-1.614-2.215V15.75h-1.057l-2.807.412v1.121l1.886.114v6.268c0 2.626 1.399 3.634 3.128 3.634 1.614 0 2.921-.66 3.678-1.831h.05l.164 1.625h1.129l2.464-.362-.008-.007zm-18.262-1.143c-1.907 0-3.056-1.554-3.056-4.21 0-2.654 1.149-4.159 3.056-4.159s3.086 1.512 3.086 4.16-1.15 4.21-3.086 4.21zm0 1.71c3.107 0 5.107-2.264 5.107-5.92 0-3.655-2-5.877-5.107-5.877-3.106 0-5.085 2.244-5.085 5.878s2.021 5.92 5.085 5.92zm-5.413-.248V25.88l-1.886-.32-4.899-8.027 3.749-4.55 1.886-.32V11.5h-5.449v1.186l1.335.248c-.921 1.1-1.793 2.193-2.692 3.336a51.32 51.32 0 00-1.929 2.45h-.05v-5.736l1.543-.277v-1.214h-5.499v1.185l1.885.299v12.578l-1.885.32v1.163h5.77v-1.164l-1.814-.32v-4.159l1.907-2.47h.043c.229.461 1.286 2.357 2.371 4.21l2.278 3.91h3.336zM413 49.68v-1.163l-1.864-.32v-6.402c0-2.655-1.493-3.656-3.178-3.656-1.686 0-3.107.916-3.821 2.009h-.043l-.136-1.76h-.828l-2.786.39v1.143l1.864.113v8.163l-1.864.32v1.164h5.478v-1.164l-1.635-.32V41.66c.921-1.122 1.907-1.874 3.292-1.874.9 0 1.679.66 1.679 2.264v6.147l-1.522.32v1.164H413zm-18.619-1.461c-1.907 0-3.057-1.555-3.057-4.21 0-2.654 1.15-4.16 3.057-4.16s3.085 1.506 3.085 4.16c0 2.655-1.15 4.21-3.085 4.21zm0 1.717c3.107 0 5.106-2.264 5.106-5.92 0-3.655-1.999-5.877-5.106-5.877-3.107 0-5.085 2.243-5.085 5.877 0 3.635 2.021 5.92 5.085 5.92zm-9.942-14.835c0 .688.6 1.256 1.336 1.256.735 0 1.335-.575 1.335-1.256s-.571-1.278-1.335-1.278-1.336.568-1.336 1.278zm4.278 14.587v-1.164l-1.885-.32v-9.81h-1.057l-2.786.391v1.143l1.864.113v8.163l-1.864.32v1.164h5.728zm-6.785-.433l-.55-1.484c-.692.277-1.285.455-1.957.455-.735 0-1.128-.39-1.128-1.122v-7.176h2.807v-1.533h-2.807v-2.882l-1.978.752v2.13h-1.543v1.533h1.543v7.616c0 1.534 1.15 2.357 2.807 2.357.849 0 1.864-.227 2.806-.639m-11.241-1.966c-1.586.866-1.864 1.164-2.757 1.164-1.378 0-1.978-.916-1.978-2.101 0-1.69.807-2.215 1.885-2.215.579 0 1.843.227 2.85.298v2.86-.006zm3.842 2.08v-1.05l-1.792-.207a6.927 6.927 0 01-.072-.958v-5.373c0-2.101-.871-3.613-3.864-3.613-1.471 0-2.671.411-4.071.844v2.563h1.243l.3-1.349c.664-.248 1.586-.433 2.228-.433 1.45 0 2.186.433 2.186 2.15v1.307c-1.221-.071-2.414-.433-3.357-.433-1.75 0-3.314.958-3.314 3.656 0 2.54 1.7 3.478 3.45 3.478 1.193 0 1.678-.433 3.314-1.42h.05l.278 1.214h1.079l2.342-.362v-.014zm-11.663.042l-.435-1.647c-.622.206-1.543.433-2.279.433-2.114 0-3.335-1.511-3.335-4.16 0-2.647 1.336-4.159 3.178-4.159.372 0 .786.022 1.129.135l.3 1.555h1.171v-3.017c-.714-.185-1.771-.39-2.507-.39-3.178 0-5.292 2.214-5.292 5.877s1.928 5.856 5.314 5.856c.807 0 1.978-.256 2.763-.483m-8.748-.042v-1.05l-1.886-.207v-9.717h-1.057l-2.6.411v1.122l1.679.113v6.56c-.9 1.142-1.793 1.667-3.15 1.667-.921 0-1.614-.639-1.614-2.214V38.4h-1.057l-2.807.412v1.122l1.886.113v6.268c0 2.627 1.4 3.635 3.128 3.635 1.614 0 2.921-.66 3.678-1.832h.043l.157 1.626h1.128l2.464-.362.008-.007zM337.781 46.7c-.508.617-1.772 1.554-2.672 1.554-1.792 0-3.199-1.256-3.199-4.188 0-2.931 1.193-4.23 3.085-4.23 1.036 0 2.143.958 2.786 1.76V46.7zm3.863 2.676v-1.05l-1.885-.207V33.234h-1.057l-2.807.412v1.121l1.886.135v5.005h-.05c-.786-.803-1.75-1.76-3.264-1.76-2.964 0-4.578 2.122-4.578 5.92 0 3.59 1.907 5.877 4.806 5.877 1.336 0 2.557-.959 3.2-1.669h.043l.135 1.463h1.15l2.414-.362h.007zm-13.141.319v-3.542h-1.314l-.3 1.782h-5.914v-5.509h4.743l.278 1.278h1.172v-4.16h-1.172l-.278 1.257h-4.743v-4.92h5.428l.3 1.626h1.314v-3.364h-10.998v1.164l1.885.32v12.57l-1.885.32v1.164h11.477l.007.014zm-17.298-8.092v-2.84c-.571-.34-1.221-.596-1.978-.596-1.336 0-2.436 1.164-2.671 2.265h-.043l-.093-2.037h-.807l-2.785.39v1.143l1.864.113v8.163l-1.864.32v1.164h5.956v-1.164l-2.114-.32v-5.92c.486-1.483 1.45-2.399 2.414-2.399.321 0 .507.022.643.093l.3 1.625h1.178zm-11.141 1.327h-5.821c.186-2.008 1.378-3.293 3.057-3.293 1.885 0 2.735 1.462 2.764 3.272v.021zm1.728 1.328v-.483c0-3.684-1.428-5.622-4.485-5.622-3.057 0-4.971 2.194-4.971 5.807 0 3.613 1.843 5.948 5.407 5.948 1.492 0 2.464-.206 3.521-.504l-.372-1.555c-.985.277-1.842.483-3.199.483-2 0-3.471-1.391-3.471-4.067h7.57v-.007zm-10.056 5.444v-1.164l-1.864-.32v-6.423c0-2.627-1.521-3.635-3.2-3.635-1.678 0-2.828.618-3.699 1.782h-.05v-6.7h-1.057l-2.786.41v1.123l1.865.134v13.31l-1.865.319v1.164h5.478v-1.164l-1.635-.32v-6.722c.921-1.1 1.907-1.689 3.264-1.689.921 0 1.7.639 1.7 2.243v6.176l-1.522.32v1.163h5.364l.007-.007zm-13.605-.433l-.55-1.483c-.693.276-1.286.454-1.957.454-.736 0-1.129-.39-1.129-1.122v-7.176h2.807v-1.533h-2.807v-2.882l-1.978.752v2.13h-1.543v1.533h1.543v7.616c0 1.534 1.15 2.357 2.807 2.357.85 0 1.864-.227 2.807-.639m-8.157-7.659v-2.84c-.578-.34-1.221-.595-1.978-.595-1.335 0-2.435 1.164-2.671 2.264h-.043l-.093-2.037h-.807l-2.785.39v1.143l1.864.114v8.163l-1.864.319v1.164h5.956v-1.164l-2.114-.32v-5.92c.486-1.483 1.45-2.399 2.414-2.399.322 0 .507.022.643.093l.3 1.625h1.178zm-9.52 7.773v-1.05l-1.885-.207v-9.717h-1.057l-2.6.412v1.121l1.678.114v6.558c-.9 1.143-1.792 1.669-3.149 1.669-.922 0-1.614-.64-1.614-2.215v-7.66h-1.057l-2.807.413v1.121l1.885.114v6.267c0 2.627 1.4 3.635 3.129 3.635 1.606 0 2.921-.66 3.678-1.832h.05l.164 1.626h1.128l2.464-.362-.007-.007zm-14.719-13.487l.299 1.647h1.315v-3.386H236.7v1.164l1.885.32v12.57l-1.885.32v1.164h5.985v-1.164l-2.021-.32v-5.352h4.321l.278 1.278h1.171v-4.252h-1.171l-.278 1.306h-4.321v-5.302h5.085l-.014.007z" fill="#575756"></path></g><defs><clipPath id="clip0_2542_2963"><path fill="#fff" d="M0 0h413v58H0z"></path></clipPath></defs></svg>